<svg width="50" height="50" viewBox="0 0 50 50" fill="none" xmlns="http://www.w3.org/2000/svg">
<rect width="50" height="50" rx="7" fill="#BC52EE"/>
<path d="M19.2337 39.9232C17.3558 38.229 16.808 34.6728 17.5902 32.0952C18.9455 33.7197 20.8249 34.2358 22.7708 34.5256C25.7744 34.9737 28.7242 34.8058 31.514 33.4521C31.8338 33.2969 32.1283 33.0895 32.4767 32.8821C32.7395 33.631 32.8076 34.3863 32.7157 35.1573C32.4941 37.0336 31.5472 38.4823 30.0431 39.5812C29.4414 40.0197 28.8049 40.4124 28.1827 40.8273C26.2747 42.1003 25.7586 43.5933 26.4758 45.7657L26.5455 46C25.6325 45.6082 24.857 44.9534 24.3177 44.119C23.7567 43.2655 23.4574 42.2666 23.4564 41.2453C23.4501 40.7386 23.4501 40.2288 23.3804 39.7284C23.2126 38.5108 22.6331 37.9662 21.5422 37.9345C20.4227 37.9028 19.5361 38.5853 19.3017 39.6603C19.2827 39.7443 19.2574 39.825 19.2305 39.9216H19.2337V39.9232ZM9.79541 32.8853C9.79541 32.8853 14.9254 30.3915 20.0712 30.3915L23.952 18.4136C24.0977 17.8341 24.522 17.4414 25.0002 17.4414C25.4783 17.4414 25.9027 17.8341 26.0483 18.4136L29.9275 30.3915C36.0233 30.3915 40.2049 32.8853 40.2049 32.8853L31.4728 9.15108C31.2227 8.45125 30.7999 8 30.2299 8H19.7704C19.2004 8 18.7967 8.45125 18.5291 9.15108L9.79541 32.8853Z" fill="white"/>
</svg>
