<svg width="50" height="50" viewBox="0 0 50 50" fill="none" xmlns="http://www.w3.org/2000/svg">
<rect width="50" height="50" rx="7" fill="#E87D0D"/>
<g clip-path="url(#clip0_655_208)">
<path d="M25.3713 26.574C25.4498 25.2074 26.1195 24.0013 27.1308 23.1471C28.1919 22.2658 29.5303 21.7878 30.9097 21.7975C32.3618 21.7975 33.696 22.31 34.6868 23.1471C35.6981 24.0013 36.3661 25.2074 36.443 26.5723C36.5198 27.9783 35.9561 29.2818 34.9653 30.2504C33.8739 31.2927 32.4187 31.8676 30.9097 31.8528C29.3996 31.8678 27.9433 31.2929 26.8507 30.2504C25.8598 29.2818 25.2944 27.9783 25.3713 26.574ZM16.5563 29.3364C16.5665 29.8728 16.7373 30.9115 16.9936 31.7247C17.5468 33.4741 18.4756 35.0816 19.715 36.4345C21.0441 37.8959 22.6665 39.0607 24.4761 39.8529C26.4456 40.7211 28.5763 41.1635 30.7286 41.1512C32.8806 41.1555 35.0093 40.7061 36.976 39.8324C38.7843 39.0327 40.405 37.863 41.7337 36.3987C42.971 35.0412 43.899 33.4314 44.4534 31.6803C44.9864 29.9837 45.1323 28.1892 44.8804 26.4288C44.6406 24.7423 44.0493 23.1249 43.1448 21.6814C42.3069 20.3385 41.2353 19.1565 39.9809 18.1913H39.9843L27.1753 8.35638L27.1411 8.33075C26.3006 7.685 24.8878 7.68842 23.9636 8.33417C23.0291 8.98675 22.9232 10.0681 23.7535 10.7515L23.7518 10.7532L29.092 15.0975L12.8116 15.1145H12.7894C11.4432 15.1163 10.15 15.9995 9.89376 17.1167C9.63068 18.2528 10.5429 19.1958 11.9438 19.2009V19.2043L20.195 19.1872L5.46918 30.4913L5.4111 30.534C4.02222 31.5965 3.57464 33.3664 4.44931 34.4853C5.33764 35.6248 7.22535 35.6265 8.6296 34.4922L16.6656 27.9168C16.6656 27.9168 16.546 28.8051 16.5563 29.3364ZM37.21 32.3106C35.5529 33.9985 33.2364 34.9551 30.7269 34.9585C28.2156 34.9654 25.8974 34.0155 24.2403 32.3311C23.4579 31.5456 22.8542 30.6004 22.4705 29.5602C22.1189 28.5815 21.98 27.5391 22.063 26.5024C22.1461 25.4658 22.4493 24.4588 22.9523 23.5486C23.4527 22.6489 24.1214 21.8537 24.922 21.2065C26.5312 19.8945 28.5795 19.1855 30.7235 19.1821C32.8691 19.1787 34.9174 19.8825 36.5284 21.1894C37.3484 21.8573 38.0146 22.6483 38.4964 23.5247C38.9951 24.4227 39.2989 25.4158 39.3881 26.4391C39.4787 27.4878 39.3393 28.5436 38.9798 29.5329C38.5961 30.5747 37.9914 31.5219 37.21 32.3106Z" fill="white"/>
</g>
<defs>
<clipPath id="clip0_655_208">
<rect width="41" height="41" fill="white" transform="translate(4 4)"/>
</clipPath>
</defs>
</svg>
