<svg width="50" height="50" fill="none" xmlns="http://www.w3.org/2000/svg"><rect width="50" height="50" rx="7" fill="#000"/><g clip-path="url(#a)"><path d="M44 35.431a2.42 2.42 0 0 1-3-1.14l-5.463-7.554-.792-1.056-6.338 8.62a2.321 2.321 0 0 1-2.853 1.12l8.167-10.956-7.597-9.898a2.526 2.526 0 0 1 3.009 1.055l5.662 7.647 5.693-7.615a2.272 2.272 0 0 1 2.831-1.058l-2.948 3.912-3.993 5.198a1.054 1.054 0 0 0 0 1.574l7.606 10.153.016-.002ZM6.003 24.329l.665-3.286c1.827-6.496 9.275-9.199 14.399-5.177 3 2.357 3.75 5.695 3.602 9.457H7.767c-.274 6.718 4.574 10.775 10.773 8.702a6.455 6.455 0 0 0 4.088-4.554c.328-1.054.868-1.235 1.859-.93a8.575 8.575 0 0 1-4.1 6.265A9.931 9.931 0 0 1 8.82 33.328a10.41 10.41 0 0 1-2.597-6.108c0-.372-.126-.72-.212-1.055A139.78 139.78 0 0 1 6 24.33l.003-.001Zm1.785-.453h15.285c-.095-4.87-3.168-8.325-7.267-8.357-4.564-.063-7.828 3.315-8.03 8.335l.012.022Z" fill="#fff"/></g><defs><clipPath id="a"><path fill="#fff" transform="translate(6 6)" d="M0 0h38v38H0z"/></clipPath></defs></svg>