<svg width="50" height="50" viewBox="0 0 50 50" fill="none" xmlns="http://www.w3.org/2000/svg">
<rect width="50" height="50" rx="7" fill="#F24E1E"/>
<path d="M31.7593 20.5941H24.3038V6H31.7593C35.7828 6 39.0555 9.27275 39.0555 13.2962C39.0555 17.3197 35.7828 20.5941 31.7593 20.5941ZM26.6941 18.2038H31.7593C34.4649 18.2038 36.6651 16.0019 36.6651 13.2979C36.6651 10.5939 34.4633 8.392 31.7593 8.392H26.6941V18.2038ZM26.6941 20.5941H19.2403C15.2168 20.5941 11.944 17.3214 11.944 13.2979C11.944 9.27438 15.2168 6 19.2403 6H26.6958V20.5941H26.6941ZM19.2403 8.39037C16.5346 8.39037 14.3344 10.5922 14.3344 13.2962C14.3344 16.0002 16.5346 18.2038 19.2403 18.2038H24.3054V8.39037H19.2403ZM26.6941 32.7962H19.2403C15.2168 32.7962 11.944 29.5235 11.944 25.5C11.944 21.4765 15.2168 18.2038 19.2403 18.2038H26.6958V32.7962H26.6941ZM19.2403 20.5941C16.5346 20.5941 14.3344 22.796 14.3344 25.5C14.3344 28.204 16.5363 30.4059 19.2403 30.4059H24.3054V20.5941H19.2403ZM19.2793 45C15.2346 45 11.9424 41.7273 11.9424 37.7038C11.9424 33.6803 15.2151 30.4075 19.2386 30.4075H26.6941V37.6241C26.6941 41.6915 23.3678 45 19.2793 45ZM19.2403 32.7962C17.9397 32.798 16.6928 33.3154 15.7732 34.235C14.8535 35.1547 14.3361 36.4015 14.3344 37.7021C14.3344 40.4078 16.5525 42.608 19.2809 42.608C22.0515 42.608 24.307 40.372 24.307 37.6225V32.7962H19.2403ZM31.7593 32.7962H31.6C27.5765 32.7962 24.3038 29.5235 24.3038 25.5C24.3038 21.4765 27.5765 18.2038 31.6 18.2038H31.7593C35.7828 18.2038 39.0555 21.4765 39.0555 25.5C39.0555 29.5235 35.7828 32.7962 31.7593 32.7962ZM31.6016 20.5941C28.896 20.5941 26.6958 22.796 26.6958 25.5C26.6958 28.204 28.8976 30.4059 31.6016 30.4059H31.7609C34.4665 30.4059 36.6668 28.204 36.6668 25.5C36.6668 22.796 34.4633 20.5941 31.7593 20.5941H31.6016Z" fill="white"/>
</svg>
