<svg width="50" height="50" viewBox="0 0 50 50" fill="none" xmlns="http://www.w3.org/2000/svg">
<rect width="50" height="50" rx="7" fill="#F7DF1E"/>
<g clip-path="url(#clip0_650_171)">
<path d="M8 8H42V42H8V8ZM39.2148 33.891C38.9669 32.3397 37.9568 31.0364 34.9606 29.8209C33.9179 29.3322 32.7591 28.9922 32.4148 28.2059C32.2859 27.7384 32.2661 27.4834 32.3497 27.2072C32.5622 26.292 33.6459 26.0172 34.4959 26.2722C35.0484 26.4422 35.5584 26.8672 35.8786 27.5472C37.3434 26.5895 37.3434 26.5895 38.3648 25.9534C37.9823 25.3584 37.7925 25.102 37.5347 24.8484C36.6422 23.8497 35.4536 23.3397 33.5198 23.3836L32.5211 23.5097C31.5634 23.7434 30.6511 24.2534 30.0986 24.9334C28.4836 26.7623 28.9497 29.9498 30.9047 31.2673C32.8384 32.7123 35.6661 33.0297 36.0273 34.3911C36.3673 36.0486 34.7948 36.5798 33.2422 36.3886C32.0933 36.1336 31.4572 35.5584 30.7559 34.4959L28.1634 35.9848C28.4609 36.6648 28.8009 36.9609 29.3109 37.5559C31.7759 40.0436 37.9384 39.9161 39.0448 36.1336C39.0859 36.0061 39.3848 35.1348 39.1497 33.7961L39.2148 33.891ZM26.4889 23.6272H23.3043C23.3043 26.3727 23.2915 29.1013 23.2915 31.851C23.2915 33.5963 23.3807 35.1986 23.096 35.6916C22.6285 36.6677 21.4243 36.543 20.8775 36.3716C20.3165 36.0939 20.0317 35.7114 19.7017 35.1603C19.6124 35.0116 19.5458 34.8827 19.5218 34.8827L16.9363 36.4764C17.3684 37.3689 17.9988 38.1367 18.812 38.6255C20.0232 39.348 21.651 39.5818 23.3552 39.1993C24.4645 38.8791 25.4207 38.2203 25.9208 37.2003C26.6433 35.8828 26.4903 34.2678 26.4832 32.4602C26.5002 29.5503 26.4832 26.6391 26.4832 23.7066L26.4889 23.6272Z" fill="white"/>
</g>
<defs>
<clipPath id="clip0_650_171">
<rect width="34" height="34" fill="white" transform="translate(8 8)"/>
</clipPath>
</defs>
</svg>
