<svg width="50" height="50" viewBox="0 0 50 50" fill="none" xmlns="http://www.w3.org/2000/svg">
<rect width="50" height="50" rx="7" fill="#339933"/>
<path d="M24.9965 44.9999C24.4615 44.9999 23.9282 44.8599 23.4599 44.5883L18.5665 41.6933C17.8365 41.2849 18.1932 41.1399 18.4332 41.0549C19.4082 40.7166 19.6048 40.6383 20.6465 40.0483C20.7548 39.9866 20.8982 40.0099 21.0099 40.0766L24.7699 42.3083C24.9065 42.3833 25.0982 42.3833 25.2232 42.3083L39.8815 33.8483C40.0182 33.7699 40.1048 33.6133 40.1048 33.4516V16.5349C40.1048 16.3699 40.0165 16.2149 39.8765 16.1316L25.2249 7.67826C25.0899 7.59993 24.9099 7.59993 24.7732 7.67826L10.1249 16.1333C9.98318 16.2149 9.89318 16.3749 9.89318 16.5349V33.4516C9.89318 33.6133 9.98318 33.7666 10.1249 33.8433L14.1399 36.1633C16.3182 37.2533 17.6532 35.9699 17.6532 34.6799V17.9783C17.6532 17.7416 17.8432 17.5566 18.0798 17.5566H19.9382C20.1699 17.5566 20.3632 17.7433 20.3632 17.9783V34.6799C20.3632 37.5883 18.7798 39.2549 16.0232 39.2549C15.1765 39.2549 14.5082 39.2549 12.6465 38.3366L8.79985 36.1249C7.84985 35.5766 7.26318 34.5499 7.26318 33.4516V16.5349C7.26318 15.4366 7.85152 14.4099 8.79985 13.8633L23.4582 5.39326C24.3865 4.86826 25.6182 4.86826 26.5382 5.39326L41.1948 13.8633C42.1448 14.4116 42.7349 15.4366 42.7349 16.5349V33.4516C42.7349 34.5499 42.1448 35.5733 41.1948 36.1249L26.5382 44.5883C26.0715 44.8599 25.5399 44.9999 24.9965 44.9999ZM36.8315 28.3216C36.8315 25.1549 34.6915 24.3116 30.1865 23.7166C25.6349 23.1149 25.1715 22.8033 25.1715 21.7383C25.1715 20.8583 25.5632 19.6833 28.9349 19.6833C31.9465 19.6833 33.0565 20.3316 33.5132 22.3616C33.5532 22.5533 33.7282 22.6933 33.9248 22.6933H35.8265C35.9449 22.6933 36.0565 22.6416 36.1365 22.5583C36.2165 22.4683 36.2599 22.3533 36.2482 22.2316C35.9532 18.7349 33.6298 17.1049 28.9349 17.1049C24.7549 17.1049 22.2615 18.8683 22.2615 21.8266C22.2615 25.0349 24.7415 25.9216 28.7532 26.3183C33.5532 26.7883 33.9248 27.4899 33.9248 28.4333C33.9248 30.0716 32.6099 30.7699 29.5215 30.7699C25.6432 30.7699 24.7898 29.7966 24.5032 27.8666C24.4698 27.6599 24.2932 27.5083 24.0815 27.5083H22.1865C21.9515 27.5083 21.7632 27.6949 21.7632 27.9299C21.7632 30.3999 23.1065 33.3433 29.5215 33.3433C34.1682 33.3449 36.8315 31.5166 36.8315 28.3216Z" fill="white"/>
</svg>
