<svg width="50" height="50" viewBox="0 0 50 50" fill="none" xmlns="http://www.w3.org/2000/svg">
<rect width="50" height="50" rx="7" fill="#61DAFB"/>
<path d="M28.1237 24.5065C28.1237 25.4699 27.7412 26.3938 27.0601 27.0752C26.379 27.7566 25.4553 28.1396 24.4919 28.14C23.5282 28.14 22.604 27.7572 21.9226 27.0758C21.2412 26.3944 20.8584 25.4702 20.8584 24.5065C20.8584 23.5431 21.241 22.6192 21.922 21.9378C22.6031 21.2564 23.5269 20.8734 24.4903 20.873C25.4539 20.873 26.3781 21.2558 27.0595 21.9372C27.7409 22.6186 28.1237 23.5428 28.1237 24.5065ZM32.4268 7.13525C30.2395 7.13525 27.3779 8.69525 24.4837 11.396C21.5912 8.70988 18.728 7.16775 16.5424 7.16775C15.8761 7.16775 15.27 7.31888 14.7451 7.6195C12.5108 8.90813 12.0103 12.9235 13.164 17.9626C8.2175 19.4901 5 21.9325 5 24.5065C5 27.0903 8.23375 29.5391 13.1949 31.0553C12.0509 36.1139 12.5611 40.1358 14.8004 41.4228C15.3204 41.7266 15.9216 41.8696 16.5911 41.8696C18.7767 41.8696 21.64 40.3096 24.5341 37.6056C27.4266 40.2934 30.2899 41.8355 32.4755 41.8355C33.1418 41.8355 33.7479 41.6893 34.2727 41.3886C36.5055 40.1016 37.0076 36.0863 35.8539 31.0455C40.7825 29.531 44 27.0838 44 24.5065C44 21.9228 40.7663 19.4739 35.8051 17.9545C36.9491 12.9008 36.4389 8.87563 34.1996 7.587C33.6829 7.288 33.0833 7.13688 32.4268 7.13525ZM32.4186 8.9065V8.91625C32.7842 8.91625 33.0784 8.98775 33.3254 9.12263C34.4076 9.74338 34.8772 12.1045 34.5116 15.1416C34.4239 15.8891 34.2809 16.6773 34.1054 17.4816C32.5454 17.0981 30.8456 16.804 29.0565 16.6139C27.984 15.1433 26.8709 13.8075 25.7496 12.6375C28.3366 10.2325 30.766 8.913 32.4203 8.90813L32.4186 8.9065ZM16.5424 8.939C18.1869 8.939 20.6276 10.252 23.2211 12.644C22.1064 13.814 20.9949 15.1416 19.9386 16.6123C18.1397 16.8024 16.4384 17.0965 14.88 17.4865C14.698 16.6903 14.5631 15.92 14.4673 15.179C14.0935 12.1435 14.555 9.784 15.6275 9.15513C15.9362 9.00888 16.2775 8.94713 16.5424 8.939ZM24.4756 13.8953C25.215 14.6558 25.9544 15.5073 26.6856 16.4368C25.9706 16.4043 25.2394 16.3815 24.5 16.3815C23.7525 16.3815 23.0131 16.3978 22.29 16.4368C23.005 15.5073 23.7444 14.6574 24.4756 13.8953ZM24.5 18.1625C25.7025 18.1625 26.9001 18.2178 28.0782 18.3136C28.738 19.2594 29.3815 20.2685 30.0006 21.3361C30.6051 22.3761 31.1544 23.4324 31.6549 24.4984C31.1544 25.5628 30.6051 26.6271 30.0088 27.6671C29.3913 28.7396 28.7526 29.7601 28.0913 30.7059C26.9083 30.8083 25.709 30.8651 24.5 30.8651C23.2975 30.8651 22.0999 30.8083 20.9218 30.714C20.262 29.7683 19.6185 28.7575 18.9994 27.6915C18.3949 26.6515 17.8456 25.5953 17.3451 24.5293C17.8375 23.4616 18.3949 22.3956 18.9912 21.354C19.6087 20.2815 20.2474 19.2643 20.9087 18.3185C22.0917 18.2145 23.291 18.1593 24.5 18.1593V18.1625ZM18.5931 18.5753C18.2031 19.1879 17.8131 19.8151 17.4491 20.4603C17.0835 21.094 16.7423 21.731 16.4173 22.368C15.9866 21.302 15.621 20.2393 15.3187 19.2041C16.3587 18.9604 17.4556 18.7426 18.5931 18.5753ZM30.3906 18.5753C31.52 18.7426 32.6088 18.949 33.6504 19.2041C33.3579 20.2311 32.9923 21.2874 32.5779 22.3453C32.2529 21.7115 31.9116 21.0729 31.5379 20.4375C31.1722 19.8005 30.7823 19.1798 30.3923 18.5753H30.3906ZM35.368 19.6721C36.1545 19.9159 36.902 20.1873 37.6024 20.4814C40.4169 21.6839 42.2369 23.2569 42.2369 24.5049C42.2288 25.7529 40.4088 27.3324 37.5943 28.5268C36.9118 28.8193 36.1642 29.0825 35.3924 29.3279C34.9374 27.7711 34.3426 26.1494 33.6049 24.4854C34.3361 22.8328 34.9211 21.2191 35.368 19.6689V19.6721ZM13.6011 19.6786C14.0529 21.2386 14.6493 22.8588 15.3886 24.5211C14.6574 26.1738 14.0691 27.7874 13.6239 29.3376C12.8374 29.0939 12.0899 28.8209 11.3976 28.5251C8.58313 27.3275 6.76313 25.7529 6.76313 24.5049C6.76313 23.2569 8.58313 21.6741 11.3976 20.4814C12.0801 20.1889 12.8276 19.9256 13.6011 19.6786ZM32.5779 26.6336C33.0085 27.7013 33.3741 28.7656 33.6764 29.7991C32.6364 30.0543 31.5379 30.2704 30.4004 30.4329C30.7904 29.8235 31.1804 29.1946 31.546 28.5511C31.9116 27.9174 32.2513 27.2706 32.5779 26.6336ZM16.4173 26.6661C16.7423 27.3031 17.0835 27.9385 17.4572 28.5755C17.831 29.2093 18.2129 29.83 18.6029 30.4329C17.4735 30.2671 16.3847 30.0591 15.3431 29.8056C15.6356 28.7819 16.0029 27.7224 16.4156 26.6645L16.4173 26.6661ZM34.12 31.52C34.302 32.3211 34.445 33.093 34.5327 33.8324C34.9065 36.8679 34.445 39.2274 33.3725 39.8579C33.1336 40.0041 32.8232 40.0659 32.4576 40.0659C30.8131 40.0659 28.3724 38.7545 25.7789 36.3609C26.8936 35.1909 28.0051 33.8649 29.0614 32.3959C30.8603 32.2041 32.5616 31.91 34.12 31.52ZM14.8963 31.5363C16.4563 31.9165 18.156 32.2106 19.9451 32.4008C21.0176 33.8714 22.1308 35.2071 23.252 36.3755C20.6601 38.7854 18.2275 40.1049 16.5733 40.1049C16.2158 40.0968 15.9135 40.0236 15.6746 39.8904C14.5924 39.2729 14.1228 36.9101 14.4884 33.873C14.5761 33.1255 14.7208 32.339 14.8963 31.5363ZM22.3062 32.5763C23.0212 32.6088 23.7525 32.6315 24.4919 32.6315C25.2394 32.6315 25.9787 32.6153 26.7019 32.5763C25.9869 33.5058 25.2475 34.3556 24.5163 35.1194C23.7769 34.3556 23.0375 33.5058 22.3062 32.5763Z" fill="white"/>
</svg>
