<svg width="50" height="50" viewBox="0 0 50 50" fill="none" xmlns="http://www.w3.org/2000/svg">
<rect width="50" height="50" rx="7" fill="#FF3E00"/>
<g clip-path="url(#clip0_655_217)">
<path d="M21.6881 40.0887C20.1854 40.4792 18.5991 40.3991 17.1434 39.8592C15.6877 39.3194 14.4327 38.3459 13.5479 37.0701C13.0045 36.3099 12.6184 35.4488 12.4121 34.5373C12.2059 33.6259 12.1838 32.6824 12.347 31.7623C12.4026 31.4601 12.4791 31.1622 12.5759 30.8706L12.7552 30.3222L13.2455 30.6809C14.3751 31.5107 15.6381 32.1416 16.98 32.5464L17.3353 32.6541L17.3011 33.0094C17.2585 33.5128 17.3952 34.015 17.6872 34.4273C17.9535 34.8118 18.3313 35.1053 18.7697 35.2681C19.2081 35.431 19.686 35.4553 20.1387 35.3379C20.3459 35.2828 20.5435 35.1964 20.7246 35.0816L30.2742 28.9965C30.5074 28.8492 30.7075 28.655 30.8616 28.4261C31.0157 28.1973 31.1205 27.9389 31.1694 27.6674C31.2186 27.3901 31.212 27.1057 31.1501 26.8308C31.0882 26.556 30.9723 26.2962 30.8089 26.0667C30.5425 25.6824 30.1646 25.3891 29.7263 25.2262C29.2879 25.0634 28.8101 25.039 28.3575 25.1562C28.1502 25.2112 27.9526 25.2976 27.7715 25.4124L24.1276 27.7358C23.5285 28.1171 22.8747 28.4046 22.1887 28.5882C20.6862 28.9788 19.1 28.899 17.6443 28.3595C16.1886 27.82 14.9335 26.8468 14.0485 25.5713C13.505 24.8108 13.119 23.9493 12.9131 23.0376C12.7071 22.1258 12.6854 21.1821 12.8492 20.2618C13.0111 19.36 13.3594 18.5019 13.8719 17.7424C14.3843 16.9829 15.0495 16.3387 15.8251 15.8509L25.373 9.7641C25.972 9.38264 26.6259 9.09516 27.312 8.91164C28.8146 8.52121 30.4009 8.60131 31.8567 9.14113C33.3124 9.68095 34.5674 10.6545 35.4522 11.9303C35.9956 12.6905 36.3817 13.5516 36.5879 14.463C36.7942 15.3745 36.8163 16.3179 36.6531 17.2381C36.5972 17.5402 36.5208 17.8381 36.4242 18.1298L36.2448 18.6782L35.7562 18.3194C34.6264 17.4887 33.3628 16.8572 32.0201 16.4522L31.6648 16.3446L31.699 15.991C31.7417 15.487 31.605 14.9842 31.3129 14.5714C31.0464 14.1872 30.6684 13.894 30.23 13.7315C29.7916 13.569 29.3139 13.5449 28.8614 13.6625C28.6542 13.7176 28.4566 13.804 28.2755 13.9188L18.7259 20.0039C18.4925 20.151 18.2923 20.3452 18.1382 20.5741C17.9841 20.8029 17.8794 21.0614 17.8307 21.3329C17.7813 21.6103 17.7878 21.8948 17.8497 22.1696C17.9116 22.4445 18.0277 22.7042 18.1912 22.9336C18.4576 23.318 18.8355 23.6113 19.2738 23.7741C19.7122 23.9369 20.1899 23.9614 20.6426 23.8442C20.8505 23.7887 21.0487 23.7017 21.2303 23.5862L24.8725 21.2629C25.4715 20.8819 26.1254 20.595 26.8114 20.4121C28.3139 20.0215 29.9001 20.1014 31.3558 20.6409C32.8115 21.1804 34.0666 22.1536 34.9516 23.4291C35.495 24.1896 35.881 25.051 36.087 25.9628C36.2929 26.8746 36.3146 27.8183 36.1509 28.7386C35.989 29.6406 35.6407 30.4989 35.1283 31.2587C34.6159 32.0185 33.9506 32.6631 33.175 33.1512L23.6271 39.2363C23.0281 39.6177 22.3742 39.9052 21.6881 40.0887ZM39.383 9.42414C35.5769 3.97456 28.0568 2.36019 22.6209 5.82469L13.0713 11.9098C11.7817 12.7214 10.6756 13.7932 9.82369 15.0566C8.97181 16.32 8.3929 17.7472 8.12395 19.2471C7.6683 21.774 8.06869 24.3807 9.2617 26.6544C8.44399 27.8939 7.88609 29.2863 7.6217 30.7476C7.35 32.2776 7.38653 33.8465 7.72917 35.3623C8.0718 36.878 8.71364 38.3101 9.61704 39.5745C13.4249 45.0241 20.9433 46.6385 26.3792 43.1757L35.9288 37.0906C37.2186 36.2791 38.3248 35.2074 39.1767 33.944C40.0285 32.6805 40.6074 31.2532 40.8761 29.7533C41.3319 27.2266 40.9321 24.62 39.7401 22.346C40.5566 21.1062 41.1134 19.7138 41.3767 18.2528C41.649 16.7226 41.613 15.1534 41.2706 13.6373C40.9283 12.1212 40.2865 10.6888 39.383 9.42414Z" fill="white"/>
</g>
<defs>
<clipPath id="clip0_655_217">
<rect width="41" height="41" fill="white" transform="translate(4 4)"/>
</clipPath>
</defs>
</svg>
