<svg width="50" height="50" viewBox="0 0 50 50" fill="none" xmlns="http://www.w3.org/2000/svg">
<rect width="50" height="50" rx="7" fill="#06B6D4"/>
<g clip-path="url(#clip0_650_192)">
<path d="M24.5015 13.3999C19.5681 13.3999 16.4848 15.8666 15.2515 20.7999C17.1015 18.3332 19.2598 17.4082 21.7265 18.0249C23.134 18.3764 24.1392 19.397 25.2538 20.5286C27.0683 22.3693 29.1665 24.4999 33.7515 24.4999C38.6848 24.4999 41.7681 22.0332 43.0015 17.0999C41.1515 19.5666 38.9931 20.4916 36.5265 19.8749C35.1189 19.5234 34.1138 18.5028 32.9991 17.3712C31.1861 15.5305 29.0879 13.3999 24.5015 13.3999ZM15.2515 24.4999C10.3181 24.4999 7.2348 26.9666 6.00146 31.8999C7.85146 29.4332 10.0098 28.5082 12.4765 29.1249C13.884 29.4764 14.8892 30.497 16.0038 31.6286C17.8183 33.4693 19.9165 35.5999 24.5015 35.5999C29.4348 35.5999 32.5181 33.1332 33.7515 28.1999C31.9015 30.6666 29.7431 31.5916 27.2765 30.9749C25.8689 30.6234 24.8638 29.6028 23.7491 28.4712C21.9361 26.6305 19.8379 24.4999 15.2515 24.4999Z" fill="white"/>
</g>
<defs>
<clipPath id="clip0_650_192">
<rect width="37" height="37" fill="white" transform="translate(6 6)"/>
</clipPath>
</defs>
</svg>
