<svg width="50" height="50" viewBox="0 0 50 50" fill="none" xmlns="http://www.w3.org/2000/svg">
<rect width="50" height="50" rx="7" fill="#3178C6"/>
<path d="M9.54688 8C8.69025 8 8 8.69025 8 9.54688V39.4531C8 40.3098 8.69025 41 9.54688 41H39.4531C40.3098 41 41 40.3098 41 39.4531V9.54688C41 8.69025 40.3098 8 39.4531 8H9.54688ZM33.421 21.4062C34.2625 21.4062 35.0077 21.4571 35.6581 21.5589C36.2716 21.6508 36.8735 21.8075 37.4539 22.0264V25.4061C37.1753 25.2135 36.8793 25.0473 36.5697 24.9098C36.2505 24.7661 35.921 24.6466 35.5839 24.5523C34.9453 24.3743 34.286 24.2818 33.6231 24.2773C33.2106 24.2773 32.8352 24.3157 32.497 24.3955C32.1955 24.46 31.9063 24.5723 31.6404 24.7283C31.4066 24.8713 31.2279 25.0431 31.1 25.2425C30.9714 25.4435 30.9045 25.6777 30.9075 25.9162C30.9075 26.1857 30.9804 26.4291 31.122 26.6436C31.265 26.8581 31.4685 27.0616 31.7311 27.2541C31.9938 27.4466 32.3127 27.6336 32.6881 27.8179C33.0635 28.0035 33.4884 28.1946 33.9614 28.3899C34.6076 28.6608 35.1879 28.9495 35.7021 29.2534C36.2164 29.5586 36.6578 29.9037 37.0263 30.2887C37.3948 30.6724 37.6753 31.111 37.8705 31.6046C38.0658 32.0982 38.1647 32.6716 38.1647 33.3275C38.1647 34.2309 37.9929 34.9913 37.6519 35.6045C37.3187 36.2093 36.8406 36.722 36.2604 37.0964C35.635 37.4929 34.9419 37.7707 34.2157 37.9159C33.4375 38.0809 32.6166 38.1634 31.7545 38.1634C30.906 38.1671 30.059 38.0916 29.2245 37.9379C28.5025 37.813 27.8023 37.5847 27.1455 37.26V33.6437C28.3882 34.7013 29.9646 35.2857 31.5964 35.2938C32.0542 35.2938 32.4544 35.2525 32.7954 35.17C33.1378 35.0875 33.4224 34.972 33.652 34.8263C33.8803 34.6778 34.0507 34.5045 34.1649 34.3037C34.291 34.07 34.3484 33.8053 34.3304 33.5404C34.3124 33.2754 34.2197 33.0209 34.0631 32.8064C33.8588 32.536 33.609 32.3034 33.3247 32.1189C32.9723 31.8852 32.6011 31.681 32.2151 31.5084C31.7576 31.2994 31.296 31.0996 30.8305 30.9089C29.5683 30.3822 28.6277 29.7374 28.0076 28.977C27.3889 28.2166 27.0781 27.2968 27.0781 26.2201C27.0781 25.3759 27.2473 24.6512 27.5855 24.0449C27.9238 23.4385 28.383 22.9394 28.966 22.5475C29.5826 22.1407 30.2672 21.8478 30.9873 21.6826C31.7847 21.4946 32.6017 21.4018 33.421 21.4062ZM12.6406 21.6647H25.7897V24.643H21.0707V37.9062H17.3349V24.643H12.6406V21.6647Z" fill="white"/>
</svg>
